<?xml version="1.0" encoding="utf-8"?>
<!-- Generator: Adobe Illustrator 24.0.1, SVG Export Plug-In . SVG Version: 6.00 Build 0)  -->
<svg version="1.1" id="Слой_1" xmlns="http://www.w3.org/2000/svg" xmlns:xlink="http://www.w3.org/1999/xlink" x="0px" y="0px"
	 viewBox="0 0 595.3 595.3" style="enable-background:new 0 0 595.3 595.3;" xml:space="preserve">
<style type="text/css">
	.st0{fill:#FFFFFF;}
</style>
<path class="st0" d="M127.7,343.8c3.7-1.4,6.3-4,6.3-8.2c0-6.5-5.9-9.2-13.4-9.2h-8.5v40.1h11.1c8.4,0,15.7-3.4,15.7-11.2
	C138.9,349.3,134.4,345.1,127.7,343.8 M122.7,364.4H118v-19.4v-2.2v-14h3.1c5.5,0,7.4,2.7,7.4,6.7c0,0.7,0.5,7.3-5,8.5
	c1.4,0.4,4,1.2,6.1,3.1c2.2,1.8,3.2,4.6,3.2,7.8C132.7,360.5,129.6,364.4,122.7,364.4 M38,340.9c-3.5-2.5-8.3-5-8.3-9.1
	c0-3.4,3.2-5.5,7.5-5.5c4.4,0,7.8,2.1,8.6,2.6l-2.2-3.8c-1.5-0.8-4.7-1.1-6.4-1.1c-5.8,0-12.6,2.5-12.6,9.4c0,5.5,4.3,8.6,11.4,13.7
	c3.3,2.4,8.5,6.1,8.5,10.7c0,4.3-3.4,7-8.8,7c-6.3,0-10.9-3.8-12-4.7l2.8,5c2.7,1.4,6.2,2,9.2,2c5.2,0,14.3-1.9,14.3-11
	C50.2,349.7,45.6,346.1,38,340.9 M79.4,325.8c-10.7,0-19.1,8.9-19.1,20.8c0,12.2,8.3,20.8,19.1,20.8c10.7,0,19.1-8.6,19.1-20.8
	C98.4,334.7,90.1,325.8,79.4,325.8 M79.4,365.1c-7.9,0-13.2-7.6-13.2-18.5c0-10.9,5.3-18.5,13.2-18.5c7.9,0,13.2,7.7,13.2,18.5
	C92.5,357.5,87.2,365.1,79.4,365.1 M215,325.6l-16.8,41h2.3l4.8-11.8h15.5l4.8,11.8h6.2L215,325.6z M206.2,352.6l6.8-16.7l6.8,16.7
	H206.2z M180.5,342.7h-21.5v-16.2H153v40h5.9V345h21.5v21.6h5.9v-40h-5.9V342.7z M290.7,342.7h-21.5v-16.2h-5.9v40h5.9V345h21.5
	v21.6h5.9v-40h-5.9V342.7z M308.1,366.6h2.3l4.8-11.8h15.5l4.8,11.8h6.2l-16.8-41L308.1,366.6z M316.1,352.6l6.8-16.7l6.8,16.7
	H316.1z M387.5,328.8h12.3v37.8h5.9v-37.8h12.3v-2.2h-30.4V328.8z M436,326.5h-5.9v40h21.3v-2.2H436V326.5z M459.4,366.6h2.3
	l4.8-11.8H482l4.8,11.8h6.2l-16.8-41L459.4,366.6z M467.4,352.5l6.8-16.7l6.8,16.7H467.4z M534,356.6l-29.5-30.7v40.7h2.2v-30.1
	l29.5,30.7v-40.7H534V356.6z M562.1,326.5h-11v40h11c12.2,0,21.9-8,21.9-20C584,334.6,574.3,326.5,562.1,326.5 M562,364.3h-5v-35.5
	h5c8.8,0,15.9,6.7,15.9,17.8C577.9,357.7,570.8,364.3,562,364.3 M379,337.7c0-8-6.6-11.2-14.6-11.2h-11.2v40h5.9v-17.7h1.9
	l15.1,17.7h5.9l-15.2-17.8C373.6,348.2,379,344.9,379,337.7 M359.1,346.7v-17.9h3.9c7,0,9.9,3.1,9.9,9c0,5.9-2.9,8.9-9.9,8.9H359.1z
	 M303.9,199.2c-20.7,0-37.6,16.8-37.6,37.6c0,20.7,16.9,37.6,37.6,37.6c20.7,0,37.6-16.8,37.6-37.6
	C341.5,216,324.7,199.2,303.9,199.2 M315.5,236c2.2-2.5,4.1-5.5,5.6-8.9c1.2-2.8,2.1-5.8,2.6-9c3.4-0.5,6.9-0.6,10.4-0.3
	c-1.3,7.2-4.4,13.6-8.8,18.2H315.5z M322.8,267c-7.2-1.3-13.6-4.4-18.1-8.8v-9.8c2.5,2.3,5.5,4.1,8.9,5.6c2.8,1.2,5.8,2.1,9,2.7
	C323,260,323.1,263.5,322.8,267 M285.4,256.6c3.1-0.6,6.2-1.4,9-2.6c3.4-1.5,6.3-3.4,8.9-5.6v9.8c-4.5,4.4-10.9,7.5-18.1,8.8
	C284.7,263.5,284.9,260,285.4,256.6 M314.1,252.6c-3.8-1.6-7-3.8-9.7-6.5l-0.5-0.5l-0.5,0.5c-2.6,2.6-5.9,4.8-9.7,6.5
	c-2.5,1.1-5.3,1.9-8.1,2.4c0.5-2.8,1.4-5.6,2.4-8.1c1.6-3.8,3.8-7,6.5-9.7l0.5-0.5l-0.5-0.5c-2.6-2.6-4.8-5.9-6.5-9.7
	c-1.1-2.5-1.9-5.3-2.4-8.1c2.8,0.5,5.6,1.4,8.1,2.4c3.8,1.6,7,3.8,9.7,6.5l0.5,0.5l0.5-0.5c2.6-2.6,5.9-4.8,9.7-6.5
	c2.5-1.1,5.3-1.9,8.1-2.4c-0.5,2.8-1.4,5.6-2.4,8.1c-1.6,3.8-3.8,7-6.5,9.7l-0.5,0.5l0.5,0.5c2.6,2.6,4.8,5.9,6.5,9.7
	c1.1,2.5,1.9,5.3,2.4,8.1C319.4,254.5,316.7,253.7,314.1,252.6 M285,206.5c7.2,1.3,13.6,4.4,18.1,8.8v9.8c-2.5-2.2-5.5-4.1-8.9-5.6
	c-2.8-1.2-5.8-2.1-9-2.6C284.9,213.5,284.7,210,285,206.5 M322.5,216.9c-3.1,0.6-6.2,1.4-9,2.6c-3.4,1.5-6.3,3.4-8.9,5.6v-9.8
	c4.5-4.4,10.9-7.5,18.1-8.8C323.1,210,323,213.5,322.5,216.9 M304.7,213.3v-12.6c6.1,0.1,11.8,1.8,16.8,4.6
	C315,206.6,309.1,209.4,304.7,213.3 M303.2,213.3c-4.4-3.9-10.3-6.7-16.8-8.1c5-2.8,10.7-4.4,16.8-4.6V213.3z M286.7,227.1
	c1.5,3.4,3.4,6.3,5.6,8.9h-9.8c-4.4-4.5-7.5-10.9-8.8-18.2c3.5-0.3,7-0.2,10.4,0.3C284.7,221.3,285.5,224.3,286.7,227.1 M280.5,236
	h-12.6c0.1-6.1,1.8-11.8,4.6-16.8C273.8,225.7,276.6,231.6,280.5,236 M280.5,237.5c-4,4.4-6.7,10.2-8.1,16.8
	c-2.8-5-4.4-10.7-4.6-16.8H280.5z M282.5,237.5h9.8c-2.2,2.5-4.1,5.5-5.6,8.9c-1.2,2.8-2.1,5.8-2.6,9c-3.4,0.5-6.9,0.6-10.4,0.3
	C275,248.3,278,242.1,282.5,237.5 M303.2,260.2v12.6c-6.1-0.1-11.8-1.8-16.8-4.6C292.9,266.9,298.8,264.1,303.2,260.2 M304.7,260.2
	c4.4,3.9,10.3,6.7,16.8,8.1c-5,2.8-10.7,4.4-16.8,4.6V260.2z M321.1,246.3c-1.5-3.4-3.4-6.3-5.6-8.9h9.8c4.5,4.6,7.5,10.8,8.8,18.1
	c-3.5,0.3-7,0.2-10.4-0.3C323.2,252.2,322.4,249.1,321.1,246.3 M327.4,237.5H340c-0.1,6.1-1.8,11.8-4.6,16.8
	C334.1,247.7,331.4,241.9,327.4,237.5 M327.4,236c3.9-4.4,6.7-10.3,8.1-16.8c2.8,5,4.4,10.7,4.6,16.8H327.4z M333.7,216.3
	c-3.2-0.2-6.5-0.1-9.6,0.3c0.4-3.1,0.5-6.4,0.3-9.6C328,209.5,331.2,212.7,333.7,216.3 M283.5,207c-0.2,3.2-0.1,6.5,0.3,9.6
	c-3.2-0.5-6.4-0.5-9.6-0.3C276.7,212.7,279.9,209.5,283.5,207 M274.2,257.2c3.2,0.2,6.4,0.1,9.6-0.3c-0.5,3.1-0.5,6.4-0.3,9.6
	C279.9,263.9,276.7,260.8,274.2,257.2 M324.4,266.4c0.2-3.2,0.1-6.4-0.3-9.6c2.1,0.3,4.2,0.5,6.4,0.5c1.1,0,2.2-0.1,3.2-0.1
	C331.1,260.8,328,263.9,324.4,266.4"/>
</svg>
