<?xml version="1.0" encoding="utf-8"?>
<!-- Generator: Adobe Illustrator 24.0.1, SVG Export Plug-In . SVG Version: 6.00 Build 0)  -->
<svg version="1.1" id="Слой_1" xmlns="http://www.w3.org/2000/svg" xmlns:xlink="http://www.w3.org/1999/xlink" x="0px" y="0px"
	 viewBox="0 0 595.3 595.3" style="enable-background:new 0 0 595.3 595.3;" xml:space="preserve">
<style type="text/css">
	.st0{fill:#FFFFFF;}
	.st1{font-family:'HiraMinPro-W3-83pv-RKSJ-H';}
	.st2{font-size:70.9151px;}
	.st3{letter-spacing:14.5;}
	.st4{font-size:65.5043px;}
	.st5{letter-spacing:9.5;}
</style>
<path class="st0" d="M396,280.8c2.9,5.6,6.5,7.9,12.4,10c5.2,1.9,11.2,2.3,17.3,1c1.5-0.3,4.9-0.6,6.4-1.1c1.8-0.6,4.2-2.3,5.9-3.2
	c4.2-2.2,5.2-4.1,8-7.3c0.5-0.6,1.9-2,2.4-2.7c0.7-0.9,0.5-1.1,1.1-2.1c2-3.4,3.3-7,3.9-10.8c0.1-0.6,0.5-2.5,0.5-3.1
	c0.1-0.6-0.2-1.9-0.2-2.5c0.1-3.3-0.3-4.4-1.3-7.6c-0.2-0.6-0.9-2.6-1.1-3.2c-0.2-0.6-0.7-0.9-1-1.5c-2.8-5-7.7-6.6-14-8
	c-0.6-0.1-3.2-1.2-3.7-1.3c-0.6-0.1-0.5,0.1-1.1,0c-9.4-1.3-17.9,0.8-20.4,3c-3.5,1.9-6.6,4.1-9.4,6.5c-0.5,0.2-0.9,0.1-1-0.4
	c-1.7-3.5,1.3-8,9.7-13.7l-1.6-0.2c-8.8,3.3-13,8.5-15.8,14c-1.7,3.2-3.2,15.5-2.9,16.2c0,0.7-0.2,3.3-0.2,3.9
	c0,2.6,1.5,3.9,1.5,3.9s1,3.7,2.2,6.8C393.9,279.1,395.4,279.7,396,280.8z"/>
<path class="st0" d="M324,190.3c2.9,5.6,6.5,7.9,12.4,10c5.2,1.9,11.2,2.3,17.3,1c1.5-0.3,4.9-0.6,6.4-1.1c1.8-0.6,4.2-2.3,5.9-3.2
	c4.2-2.2,5.2-4.1,8-7.3c0.5-0.6,1.9-2,2.4-2.7c0.7-0.9,0.5-1.1,1.1-2.1c2-3.4,3.3-7,3.9-10.8c0.1-0.6,0.5-2.5,0.5-3.1
	c0.1-0.6-0.2-1.9-0.2-2.5c0.1-3.3-0.3-4.4-1.3-7.6c-0.2-0.6-0.9-2.6-1.1-3.2c-0.2-0.6-0.7-0.9-1-1.5c-2.8-5-7.7-6.6-14-8
	c-0.6-0.1-3.2-1.2-3.7-1.3c-0.6-0.1-0.5,0.1-1.1,0c-9.4-1.3-17.9,0.8-20.4,3c-3.5,1.9-6.6,4.1-9.4,6.5c-0.5,0.2-0.9,0.1-1-0.4
	c-1.7-3.5,1.3-8,9.7-13.7l-1.6-0.2c-8.8,3.3-13,8.5-15.8,14c-1.7,3.2-3.2,15.5-2.9,16.2c0,0.7-0.2,3.3-0.2,3.9
	c0,2.6,1.5,3.9,1.5,3.9s1,3.7,2.2,6.8C321.9,188.6,323.4,189.2,324,190.3z"/>
<path class="st0" d="M267.7,103c2.9,5.6,6.5,7.9,12.4,10c5.2,1.9,11.2,2.3,17.3,1c1.5-0.3,4.9-0.6,6.4-1.1c1.8-0.6,4.2-2.3,5.9-3.2
	c4.2-2.2,5.2-4.1,8-7.3c0.5-0.6,1.9-2,2.4-2.7c0.7-0.9,0.5-1.1,1.1-2.1c2-3.4,3.3-7,3.9-10.8c0.1-0.6,0.5-2.5,0.5-3.1
	c0.1-0.6-0.2-1.9-0.2-2.5c0.1-3.3-0.3-4.4-1.3-7.6c-0.2-0.6-0.9-2.6-1.1-3.2c-0.2-0.6-0.7-0.9-1-1.5c-2.8-5-7.7-6.6-14-8
	c-0.6-0.1-3.2-1.2-3.7-1.3c-0.6-0.1-0.5,0.1-1.1,0c-9.4-1.3-17.9,0.8-20.4,3c-3.5,1.9-6.6,4.1-9.4,6.5c-0.5,0.2-0.9,0.1-1-0.4
	c-1.7-3.5,1.3-8,9.7-13.7l-1.6-0.2c-8.8,3.3-13,8.5-15.8,14c-1.7,3.2-3.2,15.5-2.9,16.2c0,0.7-0.2,3.3-0.2,3.9
	c0,2.6,1.5,3.9,1.5,3.9s1,3.7,2.2,6.8C265.6,101.4,267.1,102,267.7,103z"/>
<path class="st0" d="M145.4,280.8c2.9,5.6,6.5,7.9,12.4,10c5.2,1.9,11.2,2.3,17.3,1c1.5-0.3,4.9-0.6,6.4-1.1
	c1.8-0.6,4.2-2.3,5.9-3.2c4.2-2.2,5.2-4.1,8-7.3c0.5-0.6,1.9-2,2.4-2.7c0.7-0.9,0.5-1.1,1.1-2.1c2-3.4,3.3-7,3.9-10.8
	c0.1-0.6,0.5-2.5,0.5-3.1c0.1-0.6-0.2-1.9-0.2-2.5c0.1-3.3-0.3-4.4-1.3-7.6c-0.2-0.6-0.9-2.6-1.1-3.2c-0.2-0.6-0.7-0.9-1-1.5
	c-2.8-5-7.7-6.6-14-8c-0.6-0.1-3.2-1.2-3.7-1.3c-0.6-0.1-0.5,0.1-1.1,0c-9.4-1.3-17.9,0.8-20.4,3c-3.5,1.9-6.6,4.1-9.4,6.5
	c-0.5,0.2-0.9,0.1-1-0.4c-1.7-3.5,1.3-8,9.7-13.7l-1.6-0.2c-8.8,3.3-13,8.5-15.8,14c-1.7,3.2-3.2,15.5-2.9,16.2
	c0,0.7-0.2,3.3-0.2,3.9c0,2.6,1.5,3.9,1.5,3.9s1,3.7,2.2,6.8C143.3,279.1,144.8,279.7,145.4,280.8z"/>
<path class="st0" d="M319.1,244.6c-2.9-5.6-6.5-7.9-12.4-10c-5.2-1.9-11.2-2.3-17.3-1c-1.5,0.3-4.9,0.6-6.4,1.1
	c-1.8,0.6-4.2,2.3-5.9,3.2c-4.2,2.2-5.2,4.1-8,7.3c-0.5,0.6-1.9,2-2.4,2.7c-0.7,0.9-0.5,1.1-1.1,2.1c-2,3.4-3.3,7-3.9,10.8
	c-0.1,0.6-0.5,2.5-0.5,3.1c-0.1,0.6,0.2,1.9,0.2,2.5c-0.1,3.3,0.3,4.4,1.3,7.6c0.2,0.6,0.9,2.6,1.1,3.2c0.2,0.6,0.7,0.9,1,1.5
	c2.8,5,7.7,6.6,14,8c0.6,0.1,3.2,1.2,3.7,1.3c0.6,0.1,0.5-0.1,1.1,0c9.4,1.3,17.9-0.8,20.4-3c3.5-1.9,6.6-4.1,9.4-6.5
	c0.5-0.2,0.9-0.1,1,0.4c1.7,3.5-1.3,8-9.7,13.7l1.6,0.2c8.8-3.3,13-8.5,15.8-14c1.7-3.2,3.2-15.5,2.9-16.2c0-0.7,0.2-3.3,0.2-3.9
	c0-2.6-1.5-3.9-1.5-3.9s-1-3.7-2.2-6.8C321.2,246.2,319.6,245.6,319.1,244.6z"/>
<path class="st0" d="M260.9,154.1c-2.9-5.6-6.5-7.9-12.4-10c-5.2-1.9-11.2-2.3-17.3-1c-1.5,0.3-4.9,0.6-6.4,1.1
	c-1.8,0.6-4.2,2.3-5.9,3.2c-4.2,2.2-5.2,4.1-8,7.3c-0.5,0.6-1.9,2-2.4,2.7c-0.7,0.9-0.5,1.1-1.1,2.1c-2,3.4-3.3,7-3.9,10.8
	c-0.1,0.6-0.5,2.5-0.5,3.1c-0.1,0.6,0.2,1.9,0.2,2.5c-0.1,3.3,0.3,4.4,1.3,7.6c0.2,0.6,0.9,2.6,1.1,3.2c0.2,0.6,0.7,0.9,1,1.5
	c2.8,5,7.7,6.6,14,8c0.6,0.1,3.2,1.2,3.7,1.3c0.6,0.1,0.5-0.1,1.1,0c9.4,1.3,17.9-0.8,20.4-3c3.5-1.9,6.6-4.1,9.4-6.5
	c0.5-0.2,0.9-0.1,1,0.4c1.7,3.5-1.3,8-9.7,13.7l1.6,0.2c8.8-3.3,13-8.5,15.8-14c1.7-3.2,3.2-15.5,2.9-16.2c0-0.7,0.2-3.3,0.2-3.9
	c0-2.6-1.5-3.9-1.5-3.9s-1-3.7-2.2-6.8C263,155.7,261.4,155.1,260.9,154.1z"/>
<text transform="matrix(0.9675 0 0 1 33.8979 420.26)" class="st0 st1 st2 st3">SIX SENSES</text>
<text transform="matrix(1.0474 0 0 1 33.8979 502.0559)" class="st0 st1 st4 st5">RESIDENCES</text>
</svg>
