<?xml version="1.0" encoding="utf-8"?>
<!-- Generator: Adobe Illustrator 24.0.1, SVG Export Plug-In . SVG Version: 6.00 Build 0)  -->
<svg version="1.1" id="Слой_1" xmlns="http://www.w3.org/2000/svg" xmlns:xlink="http://www.w3.org/1999/xlink" x="0px" y="0px"
	 viewBox="0 0 595.3 595.3" style="enable-background:new 0 0 595.3 595.3;" xml:space="preserve">
<style type="text/css">
	.st0{fill-rule:evenodd;clip-rule:evenodd;fill:#FFFFFF;}
</style>
<path class="st0" d="M190.3,272.7h-15.2c-8.2,3.5-14.5,2.3-24,8.5c-8.1,5.3-11.2,7.8-16.2,16.2c-18.5,31.4,10.4,72.7,51.9,65.4
	c12-2.1,23.7-8.9,33-15.5c10.6-7.6,7.9-5.8,5.6-8.2c-1-1.1-10.5,7.5-20.9,11.8c-24.9,10.3-56.5,3.2-65.4-18.2c-1-2.4-1.9-5-1.9-7.6
	c-0.3-21.9,54.4,6.6,77.3-5.9c5-2.7,2-0.5,3.4-3.4c-0.8-0.4-33.6-1.3-39.6-2c-14.3-1.8-28.4-4.5-41.3,1c4.7-33,39.9-41.2,64.5-32.3
	c22.4,8.1,44,31.8,56,46.2c2.5,3,3,2.9,6.1,5.9c11.9,11.5,29.6,41.6,54.3,26.1c21.1-13.1,48.1-56.5,80.8-73.9
	c38.3-20.3,81.5,14.3,106.5,35l26.3,24.8c5.9,6.7,7.6,7.1,13.3,12.2c4.6,4.1,9.3,9.3,17.5,8.6c18-1.5,14.1-44.5,14.1-63.8
	c0-4.6,0-9,0.1-13.6c0.2-9.3,1.6-8.8-5.1-9.6c0,18,4,69.4-6.4,78.4c-7.8,3.5-27.9-17.5-33.5-23.1c-12-11.9-41.4-35.9-54.5-43.8
	c-47.3-28.8-76.4-18.9-111.1,10.3c-13.2,11-25,26.7-37.2,39.5c-30.7,32.4-50.4-7.6-77.7-32.4c-14.2-12.9-24.8-24.5-45.5-32.5
	C201,275.1,193.7,274.2,190.3,272.7"/>
<path class="st0" d="M472.5,340c-10.2,1.1-27.6,20.5-53.5,16.6c-16.1-2.4-39.4-18.8-34.6-35.5c10.1-15.7,70.7,15.2,81.2-6.9
	c-2.3-0.7-23,0.5-30.5-0.3c-10.6-1.2-20.5-2.7-31.4-2.9c-58.9-0.8-18,56.4,24.3,52.2c14.5-1.4,30-8.7,40.9-17.4
	C472.7,342.7,471.8,345.2,472.5,340"/>
<path class="st0" d="M110.3,367.1c1.6-2.2,1,1.3,1.3-4.3c2.1-33.8-62.3-38.1-83.3-64.7c-3.6-4.5-4.5-12-8.2-15.3
	c-6.1,8.6,4.4,24.8,10.8,30.3c23.1,19.8,68.7,25.1,75.3,45.7C108.1,364.5,105.9,364.7,110.3,367.1"/>
</svg>
