<?xml version="1.0" encoding="utf-8"?>
<!-- Generator: Adobe Illustrator 18.0.0, SVG Export Plug-In . SVG Version: 6.00 Build 0)  -->
<!DOCTYPE svg PUBLIC "-//W3C//DTD SVG 1.1//EN" "http://www.w3.org/Graphics/SVG/1.1/DTD/svg11.dtd">
<svg version="1.1" id="svg-source" xmlns="http://www.w3.org/2000/svg" xmlns:xlink="http://www.w3.org/1999/xlink" x="0px" y="0px"
	 viewBox="2137 1594.3 1410 970" enable-background="new 2137 1594.3 1410 970" xml:space="preserve">
<g id="deal">
	<path fill="#8b755a" d="M2397.8,1868.6c-11.1-4.2-23.6,1.4-27.9,12.5l-64.5,169.2c-4.2,11.2,1.3,23.7,12.5,27.9
		c8.3,3.2,17.3,0.9,23.2-5.1c2-2,3.7-4.5,4.7-7.4l64.5-169.2C2414.5,1885.3,2409,1872.8,2397.8,1868.6z M2428.6,1749.4
		c-12.1-1.4-24,2-33.5,9.5c-19.6,15.6-22.4,44.2-7.1,63.1c7.4,9.4,18,15.3,30,16.8c12,1.3,23.9-2,33.3-9.6c1.4-1.2,2.8-2.4,4.1-3.7
		c15.8-16.2,17.1-41.8,3-59.5C2451.1,1756.6,2440.5,1750.7,2428.6,1749.4z M2437.5,1808l-1.7,1.6c-4.2,3.4-9.5,4.9-14.9,4.2
		c-5.3-0.7-9.9-3.2-13.3-7.5c-6.2-7.7-5.8-18.8,2.9-27.6c0.1-0.1,0.2-0.2,0.2-0.3c4.2-3.4,9.6-4.9,15-4.3c5.2,0.6,9.9,3.1,13.1,7.3
		C2445.1,1789.4,2444.6,1800.8,2437.5,1808z M3451.8,2043.3l-137.3-328.5c-8.5-20.4-24.5-36.3-44.9-44.7c-20.4-8.4-43-8.4-63.3,0.2
		l-62.5,26.2c-34.2,14.2-53.6,51-49.7,86.5c-32,18.6-93.2-12.6-114.1-26.5c-75.1-45.5-134.4-28.9-150.6-22.8l-284.4,22.8
		c-1.2-7.7-3.2-15.3-6.7-22.6c-9.4-19.7-26.1-34.5-46.7-41.7l-63.2-22.1c-41.3-14.4-89.9,8.6-104.4,49.7l-117.1,328.2
		c-7.3,20.4-6.1,42.4,3.3,61.9c9.4,19.7,26,34.6,46.8,41.8l63.1,22c30.2,10.6,63.9,2.6,86.1-20.1c7.5-7.6,13-16.6,17-26.6
		c11.3,4.3,26,13.3,34.3,32c0.7,1.6,1.9,2.8,2.9,4.1c-5,12-7.1,25.1-5.4,38.4c2.6,19.9,12.8,37.5,28.7,49.8
		c22.2,17.1,51.2,19.8,75.4,9.2c-5.1,31.1,3.7,60.8,26.3,78c14.6,11,33,14.8,51.6,12c-0.8,7.5-0.9,14.9,0.2,22.1
		c2.6,18.4,11.9,34,26.1,43.9c22.6,15.7,54.2,14.4,84-0.8c-0.2,3.9-0.6,7.8-0.2,11.7c1.8,18.8,10.1,35.2,23.4,46.3
		c30.2,24.9,78.9,17.2,113.2-18c2.4-2.4,4.6-4.9,6.8-7.5l20.8-25.3c12-14.5,20.2-31,23.9-48c19.9,13.9,39.3,18.7,58.1,13.8
		c12.3-3.2,22.5-10.1,30.7-18.6c11.6-11.9,19.3-26.7,24.1-38.3c5.6,0.3,11.1,0.2,16.6-1.2c13.3-3.2,24.2-10.7,33-19.7
		c10.6-11,18-24,22.7-34.3c7.1,1.4,13.7,1.5,19.7,0.2c8.6-1.8,14.9-6.2,19-11.1c5.7-4.2,10.6-8.5,14.8-12.8
		c18.8-19.2,23.6-39.1,23.9-53.8c0.2-6.9-0.7-13.5-2.2-20l57-21.6c8,8.7,17.7,15.8,29,20.4c20.4,8.4,42.9,8.3,63.2-0.2l62.6-26.1
		c10.4-4.3,19.6-10.6,27.3-18.5C3457.8,2109.1,3464.6,2073.9,3451.8,2043.3z M2383.8,2109.5c-7,19.4-29.9,30-49.5,23.2l-63.2-22
		c-9.8-3.4-17.6-10.4-22.1-19.6c-4.3-9.1-4.9-19.3-1.5-28.7l117.1-328.2c1.9-5.2,4.7-9.9,8.6-13.9c10.6-10.7,26.5-14.4,40.8-9.4
		l63.2,22c9.8,3.4,17.5,10.4,22,19.6c4.4,9.1,4.9,19.4,1.5,28.8L2383.8,2109.5z M2568.7,2192.4l-14.2,18.6
		c-11.1,14.1-30.7,16.4-44.5,5.8c-6.7-5.2-11-12.6-12.1-21c-1.1-8.4,1.1-16.7,6.3-23.4l14.3-18.7c0.8-1,1.7-1.9,2.5-2.8
		c11.2-11.4,29.2-12.7,41.9-2.9c6.8,5.2,11,12.6,12.1,21C2576.1,2177.3,2573.9,2185.7,2568.7,2192.4z M2665.6,2286
		c-0.3,0.4-0.5,0.9-0.8,1.3c-17.2,18.8-40.5,26.2-53.3,16.5c-13.8-10.4-15.6-41.1,3.7-68.5l19.7-28c2.6-3.7,5.4-7.1,8.4-10.1
		c16.9-17.3,38.9-23.3,51.2-13.9c15.5,11.7,13.7,43.6-3.7,68.4l-18.4,26.1L2665.6,2286z M2759.4,2351c-24.3,30.4-58,39.2-71.5,29.8
		c-4.4-3-7-7.8-8-14.5c-2.2-15.3,5.3-35.6,19.3-53.1l5.7-7c0.4-0.7,1-1.1,1.4-1.7l0.2-0.3l16.4-20.3c2.1-2.6,4.3-5.1,6.6-7.5
		c24.2-24.8,52.6-30.8,65-22.1c4.2,2.9,6.8,7.7,7.8,14.2c2.2,15.4-5.2,35.7-19.3,53.1L2759.4,2351z M2747.9,2214.1
		c0-0.5,0-0.9,0-1.4l1.1,0.9C2748.7,2213.8,2748.3,2213.9,2747.9,2214.1z M2877.8,2395.1l-20.8,25.3c-18.3,21.9-45.7,30.7-59,19.7
		c-5.7-4.6-7.4-11.7-7.9-16.9c-1.3-14.1,4.7-30.8,16.2-44.8l20.8-25.3c1.5-1.7,2.9-3.4,4.4-4.9c17.9-18.3,42.4-25,54.6-14.9
		c7.7,6.5,8.3,17.5,8,23.5C2893.4,2369.5,2887.5,2383.5,2877.8,2395.1z M3131.2,2232.2c-0.8,0.6-1.6,1.3-2.4,2
		c-6.1-1.3-25.7-8.4-67.5-46.9l-152.9-133.1c-9-7.8-21.9-6.5-30.5,2.1c-7.8,9-6.9,22.6,2.2,30.5l152.4,132.6
		c18.1,16.7,34.2,29.7,48.6,39.1c-5.8,12.3-15.5,27.2-26.6,29.9c-13,3.1-29.6-11.7-39.8-22.1l-170.2-147.5c-9-7.8-22.7-7.2-30.5,2.2
		c-7.8,9-6.9,22.7,2.2,30.5l168.7,146.2c7.5,7.7,15,13.9,22.4,19c-5.5,12.6-14.4,27.2-24.9,29.9c-9.2,2.4-22.7-5-39.4-22.2
		l-172.7-149.9c-8.5-7.4-21.1-6.6-28.8,0.9c-4.7-10.5-11.5-19.7-20.8-26.7c-28.5-21.7-70.7-15.7-102.9,13.5
		c-2.8-19.4-12.8-36.7-28.3-48.6c-31.2-24.1-75.9-19.7-102,10.4c-14.5-20.9-33.7-31.9-49.3-37.8l102.2-286.2l217.4-17.4l-55.6,39.4
		c-1.9,1.3-3.7,2.9-5.1,4.8c-1.5,2.1-35.1,49.4-27.5,111.4c-6.2,13.1-16.7,40-9.7,62.6c3.8,11.9,11.6,21.1,23.8,27.1
		c2.1,0.9,52.1,21.8,96.9-5.4c31.8-19.3,51.5-56.7,58.6-111.4l26.8-1.6l241.9,218.9c12.2,9.2,47.2,41.7,46.6,69.4
		C3154.3,2202.7,3154.1,2216.4,3131.2,2232.2z M3177.2,2139.7c-17-24.9-38.9-42-41.9-44.2l-247.2-223.7c-4.3-3.9-10-5.8-15.7-5.6
		l-54.3,3.2c-10.8,0.6-19.5,9.1-20.3,19.9c-3.6,49.3-17.2,82.6-39.6,96.3c-25.3,15.5-56.6,3.2-57,3.1c-2.4-4,1.6-21.7,9.5-36
		c2.4-4.3,3.3-9.4,2.4-14.3c-7-40.2,11.3-74,17.2-83.4l114.2-81c6.3-2.5,50.9-18.3,112.2,18.8c10,6.7,91,58.8,151.2,32.2
		l122.9,294.3L3177.2,2139.7z M3390.6,2111.6l-62.6,26.1c-9.7,4.1-20.3,4.1-30.1,0.1c-9.8-4-17.3-11.5-21.4-21.3l-137.3-328.5
		c-6.1-14.6-2.9-31.4,8.1-42.7c3.7-3.8,8.1-6.8,13.1-8.9l62.5-26.1c9.7-4.1,20.4-4.1,30.1-0.1c9.7,4.1,17.4,11.6,21.4,21.4
		l137.3,328.5C3419.9,2079.5,3410.4,2103.2,3390.6,2111.6z M3255.2,1817.4c14.9-15.2,16.1-39.2,2.8-55.7
		c-6.9-8.8-16.8-14.2-27.9-15.5c-11.3-1.3-22.4,1.8-31.4,8.9c-18.5,14.6-21,41.3-6.7,59c6.9,8.9,16.9,14.5,28.1,15.8
		c11.2,1.3,22.3-1.8,31.3-9C3252.8,1819.8,3254.1,1818.6,3255.2,1817.4z M3237.4,1800l-1.5,1.3c-3.7,2.9-8.2,4.2-12.8,3.7
		c-4.5-0.5-8.4-2.7-11.4-6.4c-5.4-6.6-4.9-16.2,2.4-23.7c0-0.1,0.2-0.2,0.2-0.2c3.7-2.9,8.3-4.2,13-3.7c4.4,0.6,8.4,2.7,11.2,6.3
		C3243.9,1784,3243.5,1793.8,3237.4,1800z M3282.9,1870.8c-4.5-11.1-17-16.4-28.2-12c-11.1,4.5-16.4,17.1-12,28.2l72.1,177.6
		c4.6,11.1,17.2,16.4,28.2,11.9c2.9-1.1,5.4-2.9,7.4-4.9c5.8-6,7.8-15,4.5-23.3L3282.9,1870.8z"/>
</g>
</svg>
