<?xml version="1.0" encoding="iso-8859-1"?>
<!-- Generator: Adobe Illustrator 19.0.0, SVG Export Plug-In . SVG Version: 6.00 Build 0)  -->
<svg version="1.1" id="Layer_1" xmlns="http://www.w3.org/2000/svg" xmlns:xlink="http://www.w3.org/1999/xlink" x="0px" y="0px"
	 viewBox="0 0 512.001 512.001" style="enable-background:new 0 0 512.001 512.001;" xml:space="preserve">
<path style="fill:#B0DACC;" d="M365.525,343.251l-27.742,27.739c-2.373-1.294-4.938-2.579-7.525-4.033
	c-23.814-13.207-70.828-45.627-105.122-79.921c-34.368-34.378-66.914-81.408-80.109-105.222c-1.422-2.503-2.003-4.14-3.297-6.483
	l26.024-24.457l2.696-2.696c20.618-20.618,20.618-54.045,0-74.664L129.79,32.857c-20.732-20.732-54.388-20.599-74.957,0.296
	L43.996,44.162c-7.058,9.025-13.045,19.524-17.428,30.719c-4.052,10.694-6.645,20.93-7.767,31.122
	c-9.901,81.867,27.501,156.699,129,258.24c140.347,140.304,252.717,130.577,257.604,130.031c10.607-1.251,21.522-4.616,31.884-8.625
	c11.111-4.342,21.699-10.418,30.681-17.476l11.014-10.83c20.915-20.565,21.056-54.237,0.315-74.977l-39.113-39.113
	C419.569,322.638,386.144,322.636,365.525,343.251z"/>
<g>
	<path style="fill:#211E48;" d="M397.273,511.842c-0.002,0-0.005,0-0.007,0c-29.607,0-135.974-9.77-261.653-135.409
		C29.907,270.68-8.901,191.755,1.679,104.021c1.277-11.516,4.147-23.047,8.773-35.249c0.022-0.057,0.043-0.115,0.067-0.174
		c4.928-12.591,11.81-24.712,19.9-35.056c0.402-0.515,0.834-1.007,1.294-1.472l10.835-11.009C55.819,7.583,73.543,0.159,92.46,0.159
		c18.705,0,36.292,7.284,49.519,20.51l40.658,40.659c13.227,13.227,20.512,30.812,20.512,49.519s-7.286,36.292-20.512,49.519
		l-2.694,2.694c-0.126,0.126-0.253,0.25-0.384,0.372l-16.375,15.389c13.436,22.72,42.445,64.318,74.143,96.028
		c32.144,32.144,74.951,61.738,97.404,74.819l18.61-18.607c13.226-13.226,30.812-20.508,49.517-20.508
		c18.707,0,36.293,7.284,49.519,20.51l39.113,39.113c13.307,13.307,20.589,30.997,20.51,49.814
		c-0.079,18.819-7.512,36.448-20.932,49.641l-11.012,10.828c-0.455,0.448-0.934,0.869-1.436,1.263
		c-10.397,8.168-22.52,15.077-35.057,19.977c-13.593,5.259-25.396,8.422-36.14,9.689
		C406.395,511.507,402.948,511.842,397.273,511.842z M42.655,81.078c-3.575,9.447-5.774,18.219-6.721,26.813
		c-0.007,0.06-0.014,0.121-0.021,0.181C26.73,184.014,62.677,254.7,159.992,352.059c116.307,116.269,211.019,125.31,237.277,125.31
		c0.002,0,0.003,0,0.005,0c4.068,0,6.209-0.224,6.229-0.226c7.712-0.91,16.766-3.39,27.566-7.57
		c9.089-3.552,17.912-8.523,25.527-14.391l10.302-10.13c6.814-6.7,10.588-15.651,10.628-25.205s-3.658-18.538-10.414-25.293
		l-39.113-39.113c-6.715-6.715-15.646-10.414-25.143-10.414c-9.497,0-18.426,3.699-25.143,10.413l-27.742,27.739
		c-5.404,5.407-13.727,6.602-20.434,2.946c-0.9-0.49-1.831-0.977-2.779-1.477c-1.615-0.85-3.275-1.725-4.945-2.665
		c-23.509-13.036-71.995-45.889-108.864-82.758c-36.85-36.864-70.413-86.371-82.956-108.985c-1.036-1.829-1.743-3.309-2.313-4.504
		c-0.314-0.658-0.617-1.315-1.038-2.074c-3.808-6.896-2.456-15.496,3.284-20.891l25.829-24.274l2.504-2.506
		c6.715-6.715,10.416-15.646,10.416-25.143c0-9.499-3.699-18.426-10.414-25.143l-40.659-40.658
		c-6.715-6.715-15.644-10.414-25.141-10.414c-9.604,0-18.607,3.77-25.343,10.614l-10.12,10.28
		C51.208,63.083,46.258,71.896,42.655,81.078z"/>
	<path style="fill:#211E48;" d="M371.165,250.504c-29.954,0-54.324-24.371-54.324-54.324v-11.886h-11.885
		c-29.954,0-54.324-24.371-54.324-54.324s24.371-54.324,54.324-54.324h11.885V63.76c0-29.954,24.371-54.324,54.324-54.324
		S425.49,33.806,425.49,63.76v11.885h11.885c29.954,0,54.324,24.371,54.324,54.324s-24.371,54.324-54.324,54.324H425.49v11.886
		C425.488,226.134,401.117,250.504,371.165,250.504z M304.956,110.121c-10.947,0-19.851,8.904-19.851,19.851
		c0,10.947,8.904,19.851,19.851,19.851h29.121c9.518,0,17.237,7.719,17.237,17.237v29.123c0,10.947,8.904,19.851,19.851,19.851
		s19.851-8.904,19.851-19.851v-29.125c0-9.518,7.719-17.237,17.237-17.237h29.121c10.947,0,19.851-8.904,19.851-19.851
		c0-10.947-8.904-19.851-19.851-19.851h-29.121c-9.518,0-17.237-7.719-17.237-17.237V63.764c0-10.947-8.904-19.851-19.851-19.851
		c-10.947,0-19.851,8.904-19.851,19.851v29.121c0,9.518-7.719,17.237-17.237,17.237H304.956z"/>
</g>
<g>
</g>
<g>
</g>
<g>
</g>
<g>
</g>
<g>
</g>
<g>
</g>
<g>
</g>
<g>
</g>
<g>
</g>
<g>
</g>
<g>
</g>
<g>
</g>
<g>
</g>
<g>
</g>
<g>
</g>
</svg>
