<?xml version="1.0" encoding="utf-8"?>
<!-- Generator: Adobe Illustrator 18.0.0, SVG Export Plug-In . SVG Version: 6.00 Build 0)  -->
<!DOCTYPE svg PUBLIC "-//W3C//DTD SVG 1.1//EN" "http://www.w3.org/Graphics/SVG/1.1/DTD/svg11.dtd">
<svg version="1.1" id="svg-source" xmlns="http://www.w3.org/2000/svg" xmlns:xlink="http://www.w3.org/1999/xlink" x="0px" y="0px"
	 viewBox="4235.4 2814.6 33.1 40" enable-background="new 4235.4 2814.6 33.1 40" xml:space="preserve">
<g id="globe">
	<g>
		<path fill="#8b755a" d="M4267.3,2839.3l-2.6,2.6l-2.1-2.1c3.3-3.7,4.2-8.7,2.6-13.1l0,0v0c-0.6-1.8-1.6-3.5-3.1-4.9
			c-2.5-2.5-5.8-3.9-9.3-3.9c-0.2,0-0.5,0.1-0.7,0.1c-0.1,0-0.1,0-0.2,0c-2.9,0.2-5.6,1.4-7.8,3.3l-2.1-2.1l2.6-2.6
			c0.3-0.3,0.3-0.7,0-1c-0.3-0.3-0.7-0.3-1,0l-3.1,3.1c-6.8,6.8-6.8,17.9,0,24.7c3.3,3.3,7.5,5,11.8,5.1c-0.3,1.3-1.1,4.1-4.2,4.1
			h-0.9c-0.4,0-0.7,0.3-0.7,0.7c0,0.4,0.3,0.7,0.7,0.7h11.1c0.4,0,0.7-0.3,0.7-0.7c0-0.4-0.3-0.7-0.7-0.7h-6.7
			c1.2-1.2,1.8-2.9,2-4.2c4.2-0.2,8.3-1.9,11.5-5.1l3.1-3.1c0.3-0.3,0.3-0.7,0-1C4268,2839,4267.6,2839,4267.3,2839.3z
			 M4261.2,2839.3c-2.2,2.2-5.2,3.5-8.3,3.5c-3.1,0-6.1-1.2-8.3-3.5c-1.4-1.4-2.3-3.1-2.9-4.8l1.2-0.4l1.6,1.2
			c0.1,0.1,0.3,0.1,0.4,0.1c0.2,0,0.4-0.1,0.5-0.2l2.4-2.8c0.2-0.2,0.2-0.5,0.1-0.7c-0.1-0.2-0.4-0.4-0.6-0.4h-1.7l-0.9-0.6
			l-0.1-1.1l1.1-0.8c0.2-0.1,0.3-0.3,0.3-0.6v-4.1c0-0.4-0.3-0.7-0.7-0.7h-1.4c0.2-0.2,0.3-0.5,0.5-0.7c1.8-1.8,4-2.9,6.5-3.3
			l-0.8,1.7c-0.1,0.3-0.1,0.6,0.1,0.8l1.3,1.4c0.1,0.1,0.1,0.1,0.2,0.1l2.7,1.3c0.2,0.1,0.4,0.1,0.6,0c0,0,0.7-0.3,1.1-0.6
			c0.4,0,1.7,0.3,2.8,0.6l2.1,2.4c0.1,0.2,0.3,0.2,0.5,0.2h2.3C4265.4,2831.4,4264.5,2836.1,4261.2,2839.3z M4243,2824.7h1.8v3
			l-1.1,0.8c-0.2,0.1-0.3,0.4-0.3,0.6l0.1,1.9c0,0.2,0.1,0.4,0.3,0.5l1.3,0.9c0.1,0.1,0.3,0.1,0.4,0.1h0.4l-1,1.2l-1.4-1
			c-0.2-0.1-0.4-0.2-0.6-0.1l-1.5,0.5C4240.8,2830.3,4241.3,2827.2,4243,2824.7z M4261.2,2822.7c1,1,1.7,2.1,2.3,3.3h-1.4l-2-2.4
			c-0.1-0.1-0.2-0.2-0.3-0.2c-3.4-1-3.8-0.7-4.1-0.5c-0.2,0.1-0.5,0.3-0.8,0.4l-2.3-1.1l-0.9-0.9l0.9-2c0.1,0,0.2,0,0.2,0
			C4256,2819.2,4259,2820.4,4261.2,2822.7z M4241.1,2820.1l2.1,2.1c-0.4,0.4-0.7,0.8-1.1,1.3c0,0,0,0,0,0c-3.5,5.1-3,12.2,1.5,16.7
			c2.5,2.5,5.8,3.9,9.3,3.9c3.3,0,6.4-1.2,8.8-3.4l2.1,2.1c-6.3,5.8-16.1,5.7-22.2-0.4C4235.4,2836.2,4235.3,2826.4,4241.1,2820.1z"
			/>
		<path fill="#8b755a" d="M4256,2832.7c-0.2-0.2-0.4-0.3-0.7-0.3c-0.3,0.1-0.5,0.3-0.5,0.5c-0.1,0.5-0.2,1-0.4,1.4
			c-0.4-0.3-1.1-0.8-2.1-1.4l-2.6-1.6c-0.2-0.1-0.4-0.1-0.6,0c-0.2,0.1-0.4,0.2-0.4,0.5l-0.6,2l-1.9,2.4c-0.1,0.1-0.1,0.3-0.1,0.4
			v2.4c0,0.3,0.2,0.6,0.5,0.7l3.5,0.9h5.3c0.1,0,0.3,0,0.4-0.1l2.2-1.4c0.2-0.1,0.3-0.3,0.3-0.6v-2.4c0-0.2,0-0.3-0.1-0.4
			L4256,2832.7z M4256.9,2838l-1.7,1.1l-4.9,0l-2.8-0.7v-1.6l1.8-2.3c0.1-0.1,0.1-0.2,0.1-0.2l0.4-1.3l1.8,1.1
			c1,0.7,2.3,1.5,2.4,1.6c0.1,0.3,0.4,0.5,0.7,0.5c0.5,0,0.7-0.2,1.1-1.5l1.2,1.6C4256.9,2836.2,4256.9,2838,4256.9,2838z"/>
		<path fill="#8b755a" d="M4262.7,2827.7h-2.6c-0.4,0-0.7,0.3-0.7,0.7v2.6c0,0.2,0.1,0.4,0.3,0.6c0.1,0.1,0.3,0.1,0.4,0.1
			c0.1,0,0.1,0,0.2,0l2.6-0.7c0.3-0.1,0.5-0.4,0.5-0.7v-1.9C4263.4,2828,4263.1,2827.7,4262.7,2827.7z M4262,2829.7l-1.2,0.3v-1h1.2
			V2829.7z"/>
	</g>
</g>
</svg>
