<?xml version="1.0" encoding="iso-8859-1"?>
<!-- Generator: Adobe Illustrator 18.0.0, SVG Export Plug-In . SVG Version: 6.00 Build 0)  -->
<!DOCTYPE svg PUBLIC "-//W3C//DTD SVG 1.1//EN" "http://www.w3.org/Graphics/SVG/1.1/DTD/svg11.dtd">
<svg version="1.1" id="Capa_1" xmlns="http://www.w3.org/2000/svg" xmlns:xlink="http://www.w3.org/1999/xlink" x="0px" y="0px"
	 viewBox="0 0 296.985 296.985" style="enable-background:new 0 0 296.985 296.985;" xml:space="preserve">
<g>
	<path d="M105.492,165.544v23.954h-20.67c-29.679,0-52.28,50.861-52.28,76.283c0,2.842,1.643,5.458,4.216,6.665
		c39.885,18.724,77.491,24.54,108.786,24.539c16.473,0,31.199-1.601,43.582-3.777c38.996-6.855,63.415-20.406,64.436-20.98
		c2.309-1.298,3.737-3.8,3.737-6.448c0-25.422-22.602-76.281-52.28-76.281h-20.526v-23.954l0,0c2-2.021,3.123-4.313,4.557-6.455
		c1.61,5.347,4.305,10.572,8.418,13.818c2.868,2.262,6.238,3.427,9.789,3.427c1.338,0,2.741-0.156,4.137-0.486
		c9.522-2.246,28.325-10.457,36.089-18.217c12.446-12.442,15.892-29.574,9.947-49.548c-2.664-8.951-6.648-16.509-9.308-20.979
		c2.875-1.04,5.511-2.675,7.721-4.884c4.198-4.199,6.373-9.94,6.168-15.809c4.468-4.015,7.097-9.713,7.097-15.806
		c0-6.133-2.637-11.826-7.129-15.834c0.456-6.129-1.698-12.152-6.135-16.59c-3.986-3.984-9.329-6.18-15.046-6.18
		c-0.384,0-0.769,0.011-1.151,0.03c-4.012-4.481-9.71-7.114-15.822-7.114c-6.111,0-11.807,2.633-15.819,7.113
		c-0.385-0.021-0.771-0.03-1.156-0.03c-4.311,0-8.406,1.251-11.869,3.572c-0.219-0.189-0.448-0.369-0.694-0.534
		C179.618,5.2,162.388,0,144.761,0c-23.276,0-44.104,6.78-62.221,20.148C65.56,32.68,51.787,50.89,42.709,72.811
		c-0.672,1.625-1.536,3.529-2.535,5.733c-8.364,18.454-23.934,52.801,2.15,79.081c7.734,7.792,26.14,15.997,35.413,18.223
		c1.437,0.346,2.852,0.516,4.231,0.516c3.546,0,6.864-1.131,9.756-3.355c4.372-3.361,7.079-8.867,8.761-14.414
		C102.187,161.173,103.574,163.143,105.492,165.544z M186.587,278.779c-32.941,5.793-83.471,7.302-139.119-17.52
		c0.637-5.813,2.393-12.515,4.924-19.235c34.098,14.934,66.167,19.664,93.095,19.664c14.978,0,28.368-1.463,39.628-3.442
		c24.983-4.392,43.389-11.811,52.42-15.997c2.516,6.728,4.252,13.428,4.862,19.224C234.313,265.353,214.361,273.896,186.587,278.779
		z M205.019,204.498c9.269,0,19.15,10.915,26.461,24.489c-19.169,8.834-90.148,36.072-173.01-0.143
		c7.299-13.482,17.129-24.347,26.353-24.347h28.339c4.049,0,7.331-3.5,7.331-7.548v-16.726c7,5.306,15.351,8.611,24.269,8.611
		c9.186,0,17.731-3.503,24.731-9.096v17.21c0,4.048,4.116,7.548,8.165,7.548H205.019z M144.761,174.179
		c-17.269,0-32.305-20.796-40.192-38.604c-0.854-1.928-2.504-3.395-4.516-4.025c-1.569-0.492-3.264-0.438-4.783,0.132
		c-1.315-0.881-4.16-3.828-6.114-9.364c-1.758-4.985-1.709-8.756-1.331-10.57c7.798-1.301,38.749-7.69,56.937-30.484
		c7.781,10.38,23.643,24.463,57.242,31.084c0.278,1.982,0.204,5.486-1.377,9.97c-1.971,5.584-4.817,8.535-6.116,9.387
		c-1.516-0.498-3.162-0.492-4.688,0.038c-1.919,0.664-3.477,2.094-4.301,3.948C177.63,153.444,161.992,174.179,144.761,174.179z
		 M82.39,97.482c-8.98,2.4-11.934,15.711-6.996,29.711c1.996,5.658,5.067,10.679,8.646,14.137c1.364,1.318,2.796,2.385,4.259,3.211
		c-0.697,6.587-2.657,14.654-5.507,16.846c-0.306,0.235-0.598,0.456-1.634,0.207c-7.989-1.917-23.508-9.336-28.43-14.294
		c-18.966-19.108-6.595-46.399,0.797-62.703c1.009-2.227,1.962-4.329,2.729-6.179c16.779-40.52,48.937-63.76,88.508-63.76
		c14.708,0,29.115,4.342,41.359,12.555c0.108,0.072,0.222,0.133,0.333,0.199c-0.66,2.367-0.927,4.851-0.759,7.338
		c-4.508,4.009-7.153,9.713-7.153,15.855c0.001,6.094,2.629,11.791,7.096,15.806c-0.204,5.868,1.97,11.612,6.169,15.812
		c3.985,3.985,9.328,6.18,15.044,6.18c0.386,0,0.771-0.011,1.156-0.03c4.011,4.479,9.707,7.111,15.817,7.111
		c3.759,0,7.358-0.999,10.508-2.808c4.279,6.742,21.2,36.231,2.804,54.62c-5.035,5.032-20.649,12.364-29.076,14.353
		c-0.906,0.214-1.13,0.102-1.386-0.1c-2.617-2.059-4.555-9.63-5.182-16.957c5.353-3.02,10.143-9.423,12.958-17.399
		c4.27-12.103,0.541-26.583-7.089-28.468c-45.42-11.222-55.261-32.554-55.986-34.098c-1.637-3.48-3.525-5.028-6.613-5.028
		c-3.307,0-5.225,2.253-6.612,5.028C124.011,92.902,87.429,96.135,82.39,97.482z M250.696,56.561
		c-3.093,1.623-4.611,5.201-3.628,8.553c0.721,2.457,0.112,5.042-1.588,6.742c-1.217,1.217-2.88,1.887-4.68,1.887
		c-0.759,0-1.514-0.118-2.241-0.352c-3.412-1.096-7.117,0.438-8.757,3.627c-1.207,2.349-3.498,3.808-5.979,3.808
		c-2.479,0-4.77-1.459-5.978-3.807c-1.284-2.496-3.833-3.978-6.518-3.978c-0.744,0-1.498,0.113-2.238,0.351
		c-0.729,0.234-1.482,0.353-2.24,0.353c-1.802,0-3.464-0.67-4.68-1.886c-1.701-1.702-2.312-4.287-1.59-6.746
		c0.982-3.351-0.535-6.929-3.628-8.552c-2.314-1.215-3.754-3.498-3.754-5.956c0-2.505,1.484-4.806,3.873-6.007
		c3.286-1.652,4.838-5.485,3.629-8.959c-0.896-2.573-0.334-5.29,1.469-7.093c1.217-1.217,2.878-1.887,4.679-1.887
		c0.759,0,1.513,0.118,2.241,0.352c3.41,1.095,7.116-0.438,8.756-3.626c1.209-2.35,3.499-3.809,5.979-3.809
		c2.48,0,4.771,1.459,5.979,3.809c1.641,3.186,5.345,4.72,8.755,3.627c0.728-0.233,1.482-0.352,2.239-0.352
		c1.802,0,3.464,0.671,4.681,1.887c1.803,1.803,2.365,4.52,1.469,7.093c-1.21,3.475,0.344,7.308,3.631,8.959
		c2.389,1.2,3.871,3.501,3.871,6.007C254.449,53.063,253.011,55.346,250.696,56.561z"/>
	<circle cx="223.555" cy="49.528" r="11.305"/>
</g>
<g>
</g>
<g>
</g>
<g>
</g>
<g>
</g>
<g>
</g>
<g>
</g>
<g>
</g>
<g>
</g>
<g>
</g>
<g>
</g>
<g>
</g>
<g>
</g>
<g>
</g>
<g>
</g>
<g>
</g>
</svg>
